<?xml version="1.0" standalone="no"?><!DOCTYPE svg PUBLIC "-//W3C//DTD SVG 1.1//EN" "http://www.w3.org/Graphics/SVG/1.1/DTD/svg11.dtd"><svg t="1561902392417" class="icon" viewBox="0 0 1024 1024" version="1.1" xmlns="http://www.w3.org/2000/svg" p-id="3906" xmlns:xlink="http://www.w3.org/1999/xlink" width="200" height="200"><defs><style type="text/css"></style></defs><path d="M956.3 603.4c-9.5-23.4-20.7-45.9-33.5-67-86.5-143.5-244-232.7-411-232.7s-324.5 89.2-411 232.7c-12.7 21.1-24 43.6-33.5 67l-4.1 10 4.1 10c9.5 23.4 20.8 45.9 33.5 67 86.5 143.5 244 232.7 411 232.7s324.5-89.2 411-232.7c12.7-21.1 24-43.6 33.5-67l4.1-10-4.1-10zM877.2 663c-76.9 127.6-216.9 206.9-365.3 206.9S223.5 790.6 146.6 663c-9.4-15.6-18-32.2-25.5-49.5 7.5-17.2 16.1-33.8 25.5-49.5 76.8-127.7 216.8-207 365.2-207 148.4 0 288.4 79.3 365.3 206.9 9.5 15.7 18 32.3 25.5 49.5-7.4 17.3-16 33.9-25.4 49.6z" fill="#24BC77" p-id="3907"></path><path d="M511.8 460.3c-84.5 0-153.2 68.7-153.2 153.2 0 84.5 68.7 153.2 153.2 153.2S665 697.9 665 613.5c0-84.5-68.7-153.2-153.2-153.2z m0 253.1c-55.1 0-99.9-44.8-99.9-99.9 0-55.1 44.8-99.9 99.9-99.9s99.9 44.8 99.9 99.9c0.1 55.1-44.8 99.9-99.9 99.9zM485.2 100.6h53.3v134.9h-53.3zM156.985 185.158l48.306-22.525 57.009 122.26-48.306 22.525zM756.291 288.173l57.009-122.26 48.306 22.525-57.009 122.26z" fill="#24BC77" p-id="3908"></path></svg>